<svg width="22" height="22" viewBox="0 0 22 22" fill="none" xmlns="http://www.w3.org/2000/svg">
<g id="icn bxs-star">
<path id="Vector" d="M20.1227 8.41243C20.065 8.24262 19.9589 8.09341 19.8174 7.98322C19.6759 7.87303 19.5053 7.80669 19.3265 7.79238L14.0973 7.37688L11.8345 2.36786C11.7625 2.20653 11.6453 2.0695 11.497 1.97332C11.3488 1.87714 11.1759 1.8259 10.9992 1.82581C10.8225 1.82571 10.6496 1.87675 10.5013 1.97277C10.3529 2.0688 10.2356 2.20569 10.1633 2.36694L7.90051 7.37688L2.67136 7.79238C2.49567 7.8063 2.32771 7.87054 2.18757 7.97742C2.04743 8.08429 1.94105 8.22928 1.88116 8.39503C1.82126 8.56079 1.81039 8.74028 1.84984 8.91205C1.88928 9.08383 1.97738 9.24059 2.10359 9.36361L5.9679 13.1307L4.60122 19.0487C4.55972 19.2278 4.57302 19.4153 4.6394 19.5868C4.70577 19.7583 4.82215 19.9058 4.97344 20.0103C5.12472 20.1149 5.30393 20.1715 5.48781 20.1729C5.67168 20.1743 5.85173 20.1204 6.00459 20.0182L10.9989 16.6886L15.9933 20.0182C16.1495 20.1219 16.3338 20.1753 16.5213 20.1712C16.7088 20.1671 16.8905 20.1057 17.042 19.9952C17.1936 19.8847 17.3076 19.7305 17.3689 19.5532C17.4302 19.376 17.4357 19.1842 17.3847 19.0037L15.7071 13.1334L19.8677 9.38929C20.1401 9.14347 20.2401 8.76007 20.1227 8.41243Z" fill="#F3CD03"/>
</g>
</svg>
